<?xml version="1.0" standalone="no"?>
<!DOCTYPE svg PUBLIC "-//W3C//DTD SVG 20010904//EN"
 "http://www.w3.org/TR/2001/REC-SVG-20010904/DTD/svg10.dtd">
<svg version="1.0" xmlns="http://www.w3.org/2000/svg"
 width="1600.000000pt" height="366.000000pt" viewBox="0 0 1600.000000 366.000000"
 preserveAspectRatio="xMidYMid meet">

<g transform="translate(0.000000,366.000000) scale(0.100000,-0.100000)"
fill="#000000" stroke="none">
<path d="M0 1830 l0 -1830 8000 0 8000 0 0 1830 0 1830 -8000 0 -8000 0 0
-1830z m8290 1636 c93 -6 212 -37 299 -79 95 -45 204 -157 254 -261 63 -128
107 -338 107 -508 l0 -68 -320 0 -320 0 0 118 c0 102 -3 124 -22 162 -18 36
-31 48 -63 58 -76 25 -157 -9 -185 -78 -20 -48 -7 -136 30 -211 28 -55 76
-107 355 -384 353 -351 406 -415 471 -582 57 -146 69 -222 68 -443 -1 -653
-246 -939 -781 -917 -258 11 -416 69 -543 196 -158 160 -209 350 -210 781 l0
225 308 -2 307 -1 5 -254 c5 -238 6 -255 28 -295 29 -56 70 -76 138 -71 60 5
89 25 110 75 34 79 26 261 -17 390 -36 109 -89 175 -388 477 -296 300 -347
361 -411 500 -55 116 -71 184 -77 326 -22 501 211 818 622 849 50 4 106 6 125
4 19 -1 69 -4 110 -7z m7270 3 c99 -21 147 -91 137 -200 -10 -117 -67 -163
-214 -175 l-83 -7 0 82 0 81 63 0 c73 0 90 9 85 41 -2 20 -10 25 -42 27 -64 5
-84 -5 -180 -96 -106 -102 -149 -125 -226 -125 -133 0 -200 63 -200 187 0 111
74 186 182 186 l48 0 0 -80 0 -80 -39 0 c-25 0 -41 -5 -45 -15 -10 -28 5 -45
41 -45 30 0 45 11 121 89 132 134 205 162 352 130z m-14305 -51 c6 -38 22
-150 65 -468 37 -272 95 -689 151 -1098 23 -166 44 -301 46 -299 1 2 12 68 23
148 18 135 32 238 81 589 43 313 60 437 104 760 25 184 47 350 50 368 l6 32
482 -2 482 -3 3 -1573 2 -1572 -290 0 -290 0 -1 1113 -1 1112 -24 -140 c-13
-77 -42 -255 -65 -395 -22 -140 -49 -307 -59 -370 -10 -63 -36 -227 -58 -365
-22 -137 -66 -406 -96 -597 -31 -191 -56 -350 -56 -353 0 -3 -127 -5 -283 -5
l-283 0 -48 283 c-56 332 -130 770 -185 1092 -22 127 -64 372 -93 545 l-53
315 -3 -1117 -2 -1118 -285 0 -285 0 0 1568 c0 863 3 1572 7 1575 3 4 219 7
479 7 l473 0 6 -32z m2349 16 c8 -21 8 -2994 0 -3073 l-7 -61 -298 0 -299 0 0
1575 0 1575 299 0 c263 0 300 -2 305 -16z m900 8 c4 -7 115 -579 253 -1302 14
-74 29 -142 34 -150 5 -8 9 309 9 723 l0 737 300 0 300 0 0 -1575 0 -1575
-305 0 -305 0 -5 23 c-3 12 -73 359 -155 771 -83 412 -152 751 -155 754 -3 3
-5 -344 -5 -771 l0 -777 -305 0 -305 0 0 1575 0 1575 319 0 c176 0 322 -4 325
-8z m2263 -20 c212 -55 346 -182 418 -397 40 -121 44 -205 46 -1115 3 -920 3
-932 -42 -1115 -24 -98 -97 -247 -144 -297 -98 -102 -182 -149 -328 -179 -83
-17 -139 -19 -564 -19 l-473 0 0 1568 c0 863 3 1572 8 1576 4 4 230 6 502 3
463 -4 500 -6 577 -25z m3041 -539 l2 -563 145 0 145 0 2 563 3 562 310 0 310
0 3 -1573 2 -1572 -315 0 -315 0 0 715 0 715 -145 0 -145 0 0 -715 0 -715
-315 0 -315 0 0 1575 0 1575 313 -2 312 -3 3 -562z m1780 -1011 l2 -1572 -305
0 -305 0 0 1575 0 1575 303 -2 302 -3 3 -1573z m1512 1268 l0 -310 -315 0
-315 0 2 -247 3 -248 298 -3 297 -2 0 -300 0 -300 -297 -2 -298 -3 -3 -712 -2
-713 -315 0 -315 0 0 1575 0 1575 630 0 630 0 0 -310z m1478 3 l2 -303 -185 0
c-102 0 -185 -3 -185 -7 0 -5 -1 -575 -3 -1268 l-2 -1260 -317 -3 -318 -2 0
1270 0 1270 -185 0 -185 0 0 305 0 305 688 -2 687 -3 3 -302z m1030 -203 c64
-36 87 -80 87 -165 0 -85 -23 -129 -87 -165 -42 -24 -49 -25 -290 -28 -272 -4
-308 1 -363 49 -72 63 -75 217 -6 283 54 52 82 56 361 53 251 -2 256 -2 298
-27z m82 -575 l0 -75 -390 0 -390 0 0 75 0 75 390 0 390 0 0 -75z m-85 -235
c75 -37 85 -65 85 -227 l0 -133 -390 0 -390 0 0 138 c0 150 9 182 66 218 42
28 92 32 344 31 229 -2 236 -3 285 -27z m-17 -516 c74 -31 112 -89 112 -173 0
-88 -50 -159 -127 -180 -23 -7 -163 -11 -350 -11 l-313 0 0 75 0 75 301 0
c188 0 308 4 320 10 10 6 19 19 19 30 0 11 -9 24 -19 30 -12 6 -132 10 -320
10 l-301 0 0 75 0 75 320 0 c267 0 327 -3 358 -16z m-530 -526 l3 -48 315 0
314 0 0 -80 0 -80 -315 0 -315 0 0 -45 0 -45 -75 0 -75 0 0 175 0 176 73 -3
72 -3 3 -47z m522 -419 c51 -13 80 -36 101 -83 31 -69 20 -176 -24 -224 -37
-40 -77 -55 -169 -60 l-88 -5 0 79 0 80 38 -4 c21 -2 53 0 72 5 30 8 35 14 35
39 0 25 -4 29 -30 32 -61 7 -105 -17 -204 -112 -107 -102 -150 -122 -239 -114
-108 10 -172 77 -172 178 0 121 54 182 174 196 l56 7 0 -82 0 -81 -35 0 c-41
0 -62 -27 -41 -55 23 -32 66 -11 157 81 46 47 98 94 116 105 59 37 154 44 253
18z"/>
<path d="M6320 1881 l0 -1021 83 0 c92 0 137 16 171 63 21 28 21 37 24 890 2
474 0 890 -3 924 -7 70 -35 120 -78 141 -15 7 -65 16 -112 19 l-85 6 0 -1022z"/>
<path d="M15056 2794 c-12 -12 -13 -20 -6 -35 10 -18 24 -19 240 -19 125 0
235 3 244 6 9 3 16 16 16 29 0 13 -7 26 -16 29 -9 3 -116 6 -239 6 -190 0
-226 -2 -239 -16z"/>
<path d="M15063 1992 c-6 -4 -15 -20 -18 -35 l-7 -27 256 0 256 0 0 23 c0 45
-11 47 -249 47 -125 0 -231 -4 -238 -8z"/>
</g>
</svg>
